<?xml version="1.0" standalone="no"?>
<!DOCTYPE svg PUBLIC "-//W3C//DTD SVG 20010904//EN"
 "http://www.w3.org/TR/2001/REC-SVG-20010904/DTD/svg10.dtd">
<svg version="1.0" xmlns="http://www.w3.org/2000/svg"
 width="762.000000pt" height="460.000000pt" viewBox="0 0 762.000000 460.000000"
 preserveAspectRatio="xMidYMid meet">

<g transform="translate(0.000000,460.000000) scale(0.100000,-0.10000)"
fill="#000000" stroke="none">
<path d="M820 2675 l0 -1215 1068 2 1067 3 0 1210 0 1210 -1067 3 -1068 2 0
-1215z m2018 -3 l2 -1102 -952 2 -953 3 -3 1090 c-1 600 0 1096 3 1103 3 10
199 12 952 10 l948 -3 3 -1103z"/>
<path d="M2975 3858 c-3 -7 -4 -553 -3 -1213 l3 -1200 1980 0 1980 0 5 535 c5
499 6 535 22 532 12 -2 19 6 23 25 16 77 80 203 104 203 5 0 11 -15 13 -32 l3
-33 29 30 c42 45 59 81 47 104 -18 32 -39 32 -76 -1 l-36 -31 -29 28 c-16 15
-35 25 -42 22 -21 -7 -40 -78 -26 -94 16 -19 -9 -73 -34 -73 -15 0 -17 3 -8
19 7 14 9 212 8 603 l-3 583 -1978 3 c-1577 2 -1979 0 -1982 -10z m813 -865
c-2 -13 -23 -21 -80 -31 l-76 -15 -21 -62 c-11 -34 -34 -93 -51 -131 -18 -38
-45 -107 -60 -154 -16 -46 -33 -86 -38 -88 -5 -1 -21 7 -35 18 -41 32 -35 70
38 241 36 83 65 153 65 155 0 2 -16 4 -35 4 -41 0 -105 24 -105 39 0 6 -1 14
-2 19 -2 4 65 9 147 12 83 3 174 7 203 8 46 2 53 -1 50 -15z m1027 3 c20 -9
38 -10 54 -4 60 22 65 -11 15 -87 -39 -59 -68 -73 -59 -30 3 14 7 36 10 49 11
51 -67 38 -89 -15 -18 -42 -6 -82 45 -161 52 -82 66 -127 48 -163 -30 -62
-111 -89 -196 -66 -55 15 -99 52 -90 75 6 16 10 15 37 -8 57 -47 169 -59 184
-19 7 18 -8 43 -71 121 -100 123 -109 206 -30 280 41 39 94 49 142 28z m530
-21 c31 -31 31 -49 -1 -130 -15 -36 -24 -69 -21 -72 4 -3 20 8 36 26 32 35 56
39 89 15 23 -16 30 -60 13 -92 -19 -35 -48 -108 -55 -134 -10 -44 9 -40 44 10
26 35 35 43 38 30 6 -29 17 -21 46 32 21 39 25 54 16 69 -13 25 8 101 28 101
19 0 62 -50 62 -71 0 -10 -13 -48 -30 -83 -36 -79 -46 -116 -32 -116 19 0 78
91 157 244 15 29 31 30 54 5 28 -31 26 -63 -9 -149 -46 -112 -39 -145 15 -65
28 42 30 43 38 22 8 -20 10 -19 36 23 24 39 28 55 27 115 -1 62 1 70 19 74 13
2 29 -8 47 -29 l27 -33 32 31 c38 37 57 40 90 13 20 -16 24 -28 23 -73 -1
-120 -122 -256 -194 -218 -12 6 -28 9 -35 6 -7 -2 -26 -45 -41 -95 -31 -100
-46 -112 -83 -65 -25 32 -26 49 -5 110 8 25 13 48 11 50 -2 3 -16 0 -29 -7
-33 -15 -85 11 -94 46 l-6 25 -44 -40 c-24 -22 -50 -40 -58 -40 -8 0 -28 11
-44 25 -17 14 -32 25 -35 25 -4 0 -23 -11 -43 -25 -46 -31 -55 -31 -93 1 -37
31 -38 48 -8 135 13 37 18 65 12 63 -14 -6 -71 -92 -110 -167 -17 -31 -35 -57
-42 -57 -16 0 -43 40 -43 62 0 24 -7 23 -47 -8 -18 -14 -49 -32 -68 -40 -30
-12 -40 -12 -68 0 -49 20 -77 61 -77 110 1 77 60 167 129 196 35 14 81 -5 107
-45 19 -30 13 -59 -21 -100 -21 -24 -27 -27 -34 -15 -6 8 -7 27 -4 42 7 34 -6
36 -34 6 -33 -37 -53 -84 -53 -128 0 -34 3 -40 21 -40 24 0 102 51 123 81 9
13 21 19 30 16 26 -10 58 33 52 68 -5 22 6 61 37 140 24 61 47 118 50 128 9
23 23 21 52 -8z m1322 3 c32 -30 29 -51 -18 -164 -77 -184 -102 -264 -83 -264
8 0 64 63 64 73 0 4 11 5 24 1 21 -5 28 1 50 39 39 65 30 92 -14 45 -26 -28
-25 -18 1 29 35 64 82 103 123 103 24 0 86 -60 86 -84 0 -49 -75 -126 -122
-126 -19 0 -34 -40 -24 -65 11 -29 52 -16 106 34 l54 50 13 -26 c17 -34 17
-73 -2 -73 -7 0 -18 8 -23 17 -9 15 -14 14 -45 -14 -63 -55 -118 -51 -176 11
l-24 26 -37 -34 c-51 -46 -74 -52 -113 -29 -52 31 -48 62 33 266 38 98 70 185
70 193 0 21 30 17 57 -8z m-973 -27 c30 -33 2 -83 -38 -68 -19 7 -22 57 -4 75
16 16 22 15 42 -7z m110 0 c30 -33 2 -83 -38 -68 -19 7 -22 57 -4 75 16 16 22
15 42 -7z m-2003 -139 c33 -30 33 -52 0 -52 -29 0 -70 -45 -97 -106 -28 -63
-28 -97 -1 -102 45 -9 92 74 81 144 -6 41 -5 44 16 44 13 0 24 -8 27 -20 4
-14 14 -20 34 -20 15 0 32 -7 36 -15 8 -13 11 -13 28 -1 17 12 18 17 6 39 -10
18 -10 30 -2 45 6 11 11 30 11 41 0 14 6 21 18 21 21 0 62 -32 62 -48 0 -24
19 -20 53 13 20 19 43 35 52 35 28 0 56 -20 66 -47 l10 -26 38 37 c45 44 74
45 104 4 l20 -27 -43 -106 c-40 -100 -45 -125 -21 -111 6 4 36 45 67 91 57 86
82 107 70 59 -16 -62 -124 -194 -159 -194 -22 0 -75 38 -82 58 -3 11 3 48 15
81 11 33 20 68 20 78 0 23 -70 -75 -107 -149 -15 -32 -34 -60 -42 -63 -17 -7
-61 32 -61 54 0 20 40 133 51 145 5 6 9 16 9 24 0 26 -58 -50 -107 -140 -27
-48 -54 -88 -60 -88 -25 0 -46 48 -41 95 4 32 2 45 -9 49 -27 11 -34 6 -48
-29 -20 -47 -70 -102 -100 -109 -29 -7 -58 5 -97 42 -23 21 -28 34 -28 72 0
91 85 210 150 210 18 0 42 -11 61 -28z m2485 -12 l27 -30 34 30 c18 17 42 30
53 30 19 0 55 -38 65 -69 15 -49 -61 -195 -122 -232 -31 -20 -38 -20 -74 -9
-21 7 -41 11 -42 9 -8 -9 -47 -116 -55 -149 -10 -41 -34 -50 -63 -24 -32 29
-23 79 46 254 36 91 65 177 65 193 0 37 32 36 66 -3z"/>
<path d="M6020 2758 c-31 -49 -100 -173 -100 -180 0 -17 29 -7 55 19 50 51
104 183 73 183 -7 0 -20 -10 -28 -22z"/>
<path d="M6802 2724 c-33 -40 -34 -71 -2 -54 24 13 60 59 60 76 0 25 -28 14
-58 -22z"/>
<path d="M6350 2758 c-26 -27 -100 -158 -100 -175 0 -22 25 -14 53 15 39 41
100 182 78 182 -6 0 -20 -10 -31 -22z"/>
<path d="M4526 1208 c-21 -30 -23 -195 -2 -224 8 -10 17 -16 21 -12 7 7 9 247
2 255 -3 2 -12 -6 -21 -19z"/>
<path d="M4847 1099 c1 -67 5 -124 8 -127 15 -15 25 31 25 120 0 102 -5 128
-24 128 -8 0 -10 -36 -9 -121z"/>
<path d="M3608 1189 c-30 -17 -22 -62 20 -105 32 -34 35 -39 18 -42 -11 -2
-25 4 -33 13 -12 17 -13 17 -19 0 -10 -24 8 -49 37 -53 35 -3 52 12 52 48 0
24 -8 38 -31 57 -33 26 -42 53 -17 53 7 0 18 -7 23 -16 9 -17 32 -12 32 7 0
13 -38 49 -52 49 -7 0 -21 -5 -30 -11z"/>
<path d="M4008 1168 c-2 -13 -11 -24 -23 -27 -29 -5 -44 -31 -45 -76 0 -51 13
-65 62 -65 l38 0 0 95 c0 76 -3 95 -14 95 -8 0 -16 -10 -18 -22z m-3 -88 c7
-21 0 -40 -16 -40 -5 0 -9 14 -9 30 0 34 15 40 25 10z"/>
<path d="M4580 1178 c0 -14 16 -114 25 -155 8 -35 34 -27 52 15 9 20 17 33 19
27 1 -5 5 -22 8 -37 7 -32 31 -37 45 -10 15 29 30 156 20 167 -13 13 -29 -12
-29 -44 0 -19 -3 -21 -14 -11 -8 6 -16 21 -18 33 -5 33 -32 26 -43 -10 -12
-42 -23 -42 -27 -1 -2 22 -9 34 -20 36 -10 2 -18 -3 -18 -10z"/>
<path d="M4790 1095 c0 -76 3 -95 14 -95 22 0 29 35 21 116 -5 54 -11 74 -21
74 -11 0 -14 -20 -14 -95z"/>
<path d="M3716 1149 c-13 -15 -15 -24 -7 -32 6 -6 11 -25 11 -42 0 -35 24 -75
46 -75 16 0 19 26 4 35 -14 8 -13 51 2 75 10 15 9 23 -6 39 -24 26 -27 26 -50
0z"/>
<path d="M4330 1144 c-11 -20 -12 -29 -2 -44 7 -11 12 -35 12 -54 0 -26 5 -36
21 -41 30 -10 34 0 14 40 -15 33 -15 38 -1 54 20 23 20 27 -4 51 -25 25 -24
25 -40 -6z"/>
<path d="M3810 1083 c0 -69 10 -83 62 -83 l38 0 0 70 c0 53 -3 70 -14 70 -17
0 -26 -22 -26 -67 0 -50 -24 -37 -30 17 -8 69 -30 63 -30 -7z"/>
<path d="M4077 1122 c-24 -26 -22 -85 3 -107 16 -15 26 -17 47 -9 23 8 27 15
28 54 1 25 -2 53 -7 63 -11 22 -50 22 -71 -1z m51 -73 c-2 -6 -8 -10 -13 -10
-5 0 -11 4 -13 10 -2 6 4 11 13 11 9 0 15 -5 13 -11z"/>
<path d="M4190 1069 c0 -52 3 -70 13 -67 6 3 13 24 15 49 6 78 42 71 42 -8 0
-24 4 -43 9 -43 21 0 28 70 11 114 -8 22 -16 26 -50 26 l-40 0 0 -71z"/>
</g>
</svg>
